<svg width="359" height="325" viewBox="0 0 359 325" fill="none" xmlns="http://www.w3.org/2000/svg">
<path d="M110.765 168C110.179 165.979 109.886 163.078 109.886 159.299C108.011 162.346 105.447 164.704 102.195 166.374C98.9434 168.044 95.2666 168.879 91.165 168.879C86.7705 168.879 83.2256 167.692 80.5303 165.319C77.8643 162.917 76.5312 159.797 76.5312 155.959C76.5312 151.594 78.4941 148.107 82.4199 145.5C86.375 142.863 91.6191 141.516 98.1523 141.457H109.886V134.514C109.886 130.529 108.626 127.438 106.106 125.241C103.616 123.044 100.042 121.945 95.3838 121.945C91.0479 121.945 87.4297 123.059 84.5293 125.285C81.6289 127.512 80.1787 130.266 80.1787 133.547L77.8057 133.459C77.8057 129.592 79.5049 126.311 82.9033 123.615C86.3018 120.92 90.4619 119.572 95.3838 119.572C100.511 119.572 104.583 120.861 107.601 123.439C110.618 125.988 112.171 129.592 112.259 134.25V156.97C112.259 162.185 112.669 165.729 113.489 167.604V168H110.765ZM91.165 166.55C95.6182 166.55 99.4414 165.554 102.635 163.562C105.857 161.569 108.274 158.771 109.886 155.168V143.874H98.8994C92.1025 143.874 86.9023 145.222 83.2988 147.917C80.3691 150.114 78.9043 152.854 78.9043 156.135C78.9043 159.035 80.0615 161.496 82.376 163.518C84.6904 165.539 87.6201 166.55 91.165 166.55ZM159.456 168V160.31C158.05 162.946 155.999 165.041 153.304 166.594C150.608 168.117 147.195 168.879 143.064 168.879C137.879 168.879 133.982 167.37 131.375 164.353C128.797 161.306 127.479 156.882 127.42 151.081V120.451H129.793V151.169C129.852 156.208 130.994 160.031 133.221 162.639C135.447 165.217 138.699 166.506 142.977 166.506C147.518 166.506 151.209 165.437 154.051 163.298C156.893 161.159 158.694 158.024 159.456 153.894V120.451H161.873V168H159.456ZM182.22 107.619V120.451H193.03V122.868H182.22V156.618C182.22 159.987 182.762 162.478 183.846 164.089C184.959 165.7 186.805 166.506 189.383 166.506C190.672 166.506 192.239 166.374 194.085 166.11L194.48 168.352C193.514 168.703 191.858 168.879 189.515 168.879C186.058 168.879 183.582 167.927 182.088 166.022C180.594 164.089 179.832 161.057 179.803 156.926V122.868H171.014V120.451H179.803V107.619H182.22ZM200.896 143.303C200.896 138.762 201.761 134.689 203.489 131.086C205.247 127.453 207.708 124.626 210.872 122.604C214.065 120.583 217.669 119.572 221.683 119.572C225.667 119.572 229.241 120.554 232.405 122.517C235.569 124.479 238.03 127.263 239.788 130.866C241.575 134.47 242.483 138.527 242.513 143.039V145.148C242.513 149.719 241.648 153.806 239.92 157.409C238.191 161.013 235.73 163.825 232.537 165.847C229.373 167.868 225.784 168.879 221.771 168.879C217.757 168.879 214.153 167.883 210.96 165.891C207.796 163.898 205.335 161.115 203.577 157.541C201.819 153.938 200.926 149.895 200.896 145.412V143.303ZM203.27 145.148C203.27 149.104 204.046 152.736 205.599 156.047C207.181 159.328 209.363 161.892 212.146 163.737C214.959 165.583 218.167 166.506 221.771 166.506C227.19 166.506 231.6 164.47 234.998 160.397C238.426 156.325 240.14 151.081 240.14 144.665V143.303C240.14 139.406 239.349 135.803 237.767 132.492C236.185 129.182 233.987 126.604 231.175 124.758C228.392 122.883 225.228 121.945 221.683 121.945C216.263 121.945 211.839 124.011 208.411 128.142C204.983 132.272 203.27 137.473 203.27 143.742V145.148Z" fill="white"/>
<path d="M111.664 41.2344H90.9609V96H88.8516V41.2344H68.1484V39.125H111.664V41.2344ZM155.062 82.3672C155.062 79.9453 154.49 77.901 153.344 76.2344C152.224 74.5417 150.44 73.0573 147.992 71.7812C145.57 70.4792 141.898 69.151 136.977 67.7969C132.055 66.4427 128.357 65.0755 125.883 63.6953C123.435 62.3151 121.638 60.7135 120.492 58.8906C119.346 57.0677 118.773 54.8542 118.773 52.25C118.773 48.1094 120.518 44.763 124.008 42.2109C127.497 39.6328 132.042 38.3438 137.641 38.3438C141.286 38.3438 144.555 39.0599 147.445 40.4922C150.362 41.8984 152.615 43.8906 154.203 46.4688C155.792 49.0208 156.586 51.9115 156.586 55.1406H154.477C154.477 50.8958 152.914 47.3932 149.789 44.6328C146.664 41.8464 142.615 40.4531 137.641 40.4531C132.641 40.4531 128.591 41.5729 125.492 43.8125C122.419 46.026 120.883 48.8125 120.883 52.1719C120.883 55.5833 122.224 58.3307 124.906 60.4141C127.589 62.4974 132.016 64.3464 138.188 65.9609C144.359 67.5495 148.878 69.3984 151.742 71.5078C155.388 74.1901 157.211 77.7839 157.211 82.2891C157.211 85.1536 156.404 87.6927 154.789 89.9062C153.174 92.0938 150.883 93.7865 147.914 94.9844C144.945 96.1823 141.612 96.7812 137.914 96.7812C133.799 96.7812 130.102 96.1042 126.82 94.75C123.539 93.3698 121.065 91.4167 119.398 88.8906C117.758 86.3646 116.938 83.3828 116.938 79.9453H119.047C119.047 84.6068 120.792 88.2266 124.281 90.8047C127.771 93.3828 132.315 94.6719 137.914 94.6719C142.888 94.6719 146.99 93.5391 150.219 91.2734C153.448 88.9818 155.062 86.013 155.062 82.3672Z" fill="white"/>
<path d="M112.78 237H110.407V205.052C110.378 200.276 109.323 196.731 107.243 194.417C105.192 192.073 101.911 190.901 97.3994 190.901C92.1846 190.901 87.9219 193.201 84.6113 197.801C82.6484 200.555 81.3447 203.602 80.7002 206.941V237H78.2832V189.451H80.7002V200.701C82.3115 196.834 84.6113 193.846 87.5996 191.736C90.5879 189.627 93.8984 188.572 97.5312 188.572C101.516 188.572 104.768 189.451 107.287 191.209C109.836 192.967 111.506 195.838 112.297 199.822C113.703 196.395 115.988 193.67 119.152 191.648C122.316 189.598 125.861 188.572 129.787 188.572C134.914 188.572 138.723 190.022 141.213 192.923C143.732 195.823 145.007 200.174 145.036 205.975V237H142.663V206.15C142.663 200.936 141.608 197.083 139.499 194.593C137.419 192.073 134.138 190.843 129.655 190.901C123.884 190.989 119.313 193.289 115.944 197.801C114.011 200.408 112.956 202.928 112.78 205.359V237ZM155.847 212.303C155.847 207.762 156.711 203.689 158.439 200.086C160.197 196.453 162.658 193.626 165.822 191.604C169.016 189.583 172.619 188.572 176.633 188.572C180.617 188.572 184.191 189.554 187.355 191.517C190.52 193.479 192.98 196.263 194.738 199.866C196.525 203.47 197.434 207.527 197.463 212.039V214.148C197.463 218.719 196.599 222.806 194.87 226.409C193.142 230.013 190.681 232.825 187.487 234.847C184.323 236.868 180.734 237.879 176.721 237.879C172.707 237.879 169.104 236.883 165.91 234.891C162.746 232.898 160.285 230.115 158.527 226.541C156.77 222.938 155.876 218.895 155.847 214.412V212.303ZM158.22 214.148C158.22 218.104 158.996 221.736 160.549 225.047C162.131 228.328 164.313 230.892 167.097 232.737C169.909 234.583 173.117 235.506 176.721 235.506C182.141 235.506 186.55 233.47 189.948 229.397C193.376 225.325 195.09 220.081 195.09 213.665V212.303C195.09 208.406 194.299 204.803 192.717 201.492C191.135 198.182 188.938 195.604 186.125 193.758C183.342 191.883 180.178 190.945 176.633 190.945C171.213 190.945 166.789 193.011 163.361 197.142C159.934 201.272 158.22 206.473 158.22 212.742V214.148ZM225.148 235.506C229.455 235.506 233 234.363 235.783 232.078C238.596 229.793 240.134 226.629 240.397 222.586H242.771C242.536 227.186 240.764 230.892 237.453 233.704C234.143 236.487 230.041 237.879 225.148 237.879C219.201 237.879 214.47 235.726 210.954 231.419C207.468 227.112 205.725 221.268 205.725 213.885V212.303C205.725 205.096 207.468 199.339 210.954 195.032C214.47 190.726 219.172 188.572 225.061 188.572C230.1 188.572 234.26 190.081 237.541 193.099C240.822 196.116 242.565 200.13 242.771 205.14H240.397C240.192 200.862 238.684 197.435 235.871 194.856C233.088 192.249 229.484 190.945 225.061 190.945C219.758 190.945 215.598 192.864 212.58 196.702C209.592 200.511 208.098 205.813 208.098 212.61V214.148C208.098 220.799 209.606 226.028 212.624 229.837C215.671 233.616 219.846 235.506 225.148 235.506ZM264.084 211.292L263.996 211.38L257.097 217.312V237H254.724V169.5H257.097V214.72L262.678 209.446L284.299 189.451H287.683L265.842 209.71L289.045 237H285.969L264.084 211.292Z" fill="white"/>
<line x1="47" y1="38" x2="47" y2="225" stroke="white" stroke-width="2"/>
<line x1="303" y1="264" x2="95" y2="264" stroke="white" stroke-width="2"/>
</svg>
